<?xml version="1.0" encoding="UTF-8" standalone="no"?>
<svg width="24px" height="24px" viewBox="0 0 24 24" version="1.1" xmlns="http://www.w3.org/2000/svg" xmlns:xlink="http://www.w3.org/1999/xlink" xmlns:sketch="http://www.bohemiancoding.com/sketch/ns">
    <!-- Generator: Sketch 3.3.2 (12043) - http://www.bohemiancoding.com/sketch -->
    <title>Slice 1</title>
    <desc>Created with Sketch.</desc>
    <defs></defs>
    <g id="Page-1" stroke="none" stroke-width="1" fill="none" fill-rule="evenodd" sketch:type="MSPage">
        <path d="M1.725,7.057 C1.882,7.214 2.084,7.303 2.286,7.303 L21.544,7.303 C21.746,7.303 21.948,7.214 22.106,7.057 C22.263,6.899 22.33,6.72 22.33,6.495 L22.33,3.308 C22.33,3.084 22.263,2.904 22.106,2.747 C21.948,2.59 21.746,2.5 21.544,2.5 L2.286,2.5 C2.084,2.5 1.882,2.59 1.725,2.747 C1.568,2.904 1.5,3.084 1.5,3.308 L1.5,6.495 C1.5,6.72 1.568,6.899 1.725,7.057 L1.725,7.057 Z M2.533,21.467 C2.69,21.624 2.87,21.714 3.094,21.714 L20.736,21.714 C20.961,21.714 21.14,21.624 21.297,21.467 C21.455,21.31 21.544,21.13 21.544,20.906 L21.544,8.897 C21.544,8.673 21.455,8.493 21.297,8.336 C21.14,8.179 20.961,8.089 20.736,8.089 L3.094,8.089 C2.87,8.089 2.69,8.179 2.533,8.336 C2.376,8.493 2.286,8.673 2.286,8.897 L2.286,20.906 C2.286,21.13 2.376,21.31 2.533,21.467 L2.533,21.467 Z M10.322,10.491 L13.509,10.491 C13.733,10.491 13.913,10.581 14.092,10.738 C14.25,10.895 14.317,11.074 14.317,11.299 C14.317,11.501 14.25,11.703 14.092,11.86 C13.913,12.017 13.733,12.084 13.509,12.084 L10.322,12.084 C10.097,12.084 9.918,12.017 9.738,11.86 C9.581,11.703 9.513,11.501 9.513,11.299 C9.513,11.074 9.581,10.895 9.738,10.738 C9.918,10.581 10.097,10.491 10.322,10.491 L10.322,10.491 Z" id="Fill-99" fill="#3A4245" sketch:type="MSShapeGroup"></path>
    </g>
</svg>